<?xml version="1.0" encoding="UTF-8" standalone="no"?>
<!-- Created with Inkscape (http://www.inkscape.org/) -->

<svg
   xmlns:dc="http://purl.org/dc/elements/1.1/"
   xmlns:cc="http://creativecommons.org/ns#"
   xmlns:rdf="http://www.w3.org/1999/02/22-rdf-syntax-ns#"
   xmlns:svg="http://www.w3.org/2000/svg"
   xmlns="http://www.w3.org/2000/svg"
   xmlns:sodipodi="http://sodipodi.sourceforge.net/DTD/sodipodi-0.dtd"
   xmlns:inkscape="http://www.inkscape.org/namespaces/inkscape"
   width="200"
   height="145.80156"
   id="svg2"
   version="1.1"
   inkscape:version="0.48.4 r9939"
   sodipodi:docname="info-infoLogo.svg">
  <defs
     id="defs4">
    <clipPath
       clipPathUnits="userSpaceOnUse"
       id="clipPath3812">
      <path
         style="opacity:0.656;fill:#000000;fill-opacity:1;stroke:none"
         inkscape:transform-center-x="-0.60663066"
         inkscape:transform-center-y="-45.574139"
         d="M 43.899098,215.87612 C 27.499989,190.43585 -10.819208,145.03577 -0.22653024,120.75465 10.366147,96.473524 34.486803,6.7756834 63.621691,-6.3903243 92.75658,-19.55633 222.68253,-6.7671625 220.58882,69.085052 l -3.9461,18.722651 -2.01785,1.593762 2.02061,14.330965 -4.63521,0.86378 c -0.74966,-0.49744 -2.93181,-10.585632 -3.88196,-10.263065 l 1.27918,16.217225 -4.73048,-0.14725 -1.42846,-9.87554 -0.32163,2.28497 -4.152,0.66057 -4.30951,-2.36929 -23.97266,35.43931 6.07998,14.19994 -10.88448,27.43274 -0.61381,2.8036 1.28068,1.01672 2.13438,0.42539 2.60808,3.46429 -3.5522,3.74583 -4.07345,3.88661 2.84501,3.79276 4.74049,-3.57444 15.97113,-11.36395 3.31888,3.51121 -2.03582,17.91713 C 178.29775,191.90991 86.822422,267.76617 43.899098,215.87612 z"
         id="path3814"
         inkscape:connector-curvature="0"
         sodipodi:nodetypes="cssccccccccccccccccccccccccccc"
         clip-path="url(#clipPath3794)" />
    </clipPath>
    <clipPath
       clipPathUnits="userSpaceOnUse"
       id="clipPath3816">
      <path
         style="opacity:0.656;fill:#000000;fill-opacity:1;stroke:none"
         inkscape:transform-center-x="-0.60663066"
         inkscape:transform-center-y="-45.574139"
         d="M 35.170286,207.23239 C 18.771177,181.79212 -19.54802,136.39204 -8.9553424,112.11092 1.637335,87.829791 25.757991,-1.8680497 54.892878,-15.034057 84.027768,-28.200063 213.95372,-15.410896 211.86001,60.441319 l -3.9461,18.722651 -2.01785,1.593762 2.02061,14.330966 -4.63521,0.863782 c -0.74966,-0.497441 -2.93181,-10.585635 -3.88197,-10.263068 l 1.27918,16.217228 -4.73047,-0.14726 -1.42846,-9.875538 -0.32163,2.284973 -4.152,0.660575 -4.30952,-2.369292 -23.97265,35.439312 6.07997,14.19994 -10.88447,27.43274 -0.61381,2.8036 1.28067,1.01672 2.13438,0.42539 2.60808,3.46428 -3.55219,3.74584 -4.07345,3.88661 2.84501,3.79276 4.74048,-3.57444 15.97114,-11.36395 3.31888,3.51121 -2.03582,17.91712 C 169.56894,183.26617 78.09361,259.12244 35.170286,207.23239 z"
         id="path3818"
         inkscape:connector-curvature="0"
         sodipodi:nodetypes="cssccccccccccccccccccccccccccc"
         clip-path="url(#clipPath3794)" />
    </clipPath>
    <clipPath
       clipPathUnits="userSpaceOnUse"
       id="clipPath3820">
      <path
         style="opacity:0.656;fill:#000000;fill-opacity:1;stroke:none"
         inkscape:transform-center-x="-0.60663066"
         inkscape:transform-center-y="-45.574139"
         d="M 47.863071,205.34503 C 31.463962,179.90476 -6.8552346,134.50468 3.7374429,110.22356 14.33012,85.942432 38.450776,-3.7554083 67.585664,-16.921416 96.720553,-30.087421 226.6465,-17.298254 224.5528,58.55396 l -3.94611,18.722651 -2.01785,1.593763 2.02062,14.330966 -4.63522,0.863782 c -0.74965,-0.497442 -2.93181,-10.585635 -3.88196,-10.263069 l 1.27918,16.217227 -4.73048,-0.147256 -1.42846,-9.87554 -0.32163,2.284972 -4.15199,0.660576 -4.30952,-2.369293 -23.97266,35.439311 6.07998,14.19994 -10.88448,27.43274 -0.61381,2.8036 1.28068,1.01672 2.13438,0.42539 2.60808,3.46428 -3.5522,3.74584 -4.07345,3.88661 2.84502,3.79276 4.74048,-3.57444 15.97114,-11.36395 3.31887,3.51121 -2.03582,17.91712 C 182.26173,181.37882 90.786395,257.23508 47.863071,205.34503 z"
         id="path3822"
         inkscape:connector-curvature="0"
         sodipodi:nodetypes="cssccccccccccccccccccccccccccc"
         clip-path="url(#clipPath3794)" />
    </clipPath>
  </defs>
  <sodipodi:namedview
     id="base"
     pagecolor="#ffffff"
     bordercolor="#666666"
     borderopacity="1.0"
     inkscape:pageopacity="0.0"
     inkscape:pageshadow="2"
     inkscape:zoom="1.979899"
     inkscape:cx="213.21473"
     inkscape:cy="6.3092122"
     inkscape:document-units="px"
     inkscape:current-layer="layer1"
     showgrid="false"
     inkscape:window-width="1600"
     inkscape:window-height="843"
     inkscape:window-x="0"
     inkscape:window-y="22"
     inkscape:window-maximized="1"
     inkscape:snap-bbox="true"
     inkscape:bbox-paths="true"
     inkscape:bbox-nodes="true"
     inkscape:snap-bbox-edge-midpoints="true"
     inkscape:snap-bbox-midpoints="true"
     inkscape:snap-global="true"
     fit-margin-top="0"
     fit-margin-left="0"
     fit-margin-right="0"
     fit-margin-bottom="0" />
  <metadata
     id="metadata7">
    <rdf:RDF>
      <cc:Work
         rdf:about="">
        <dc:format>image/svg+xml</dc:format>
        <dc:type
           rdf:resource="http://purl.org/dc/dcmitype/StillImage" />
        <dc:title />
      </cc:Work>
    </rdf:RDF>
  </metadata>
  <g
     inkscape:label="Calque 1"
     inkscape:groupmode="layer"
     id="layer1"
     transform="translate(-167.23083,30.362492)">
    <path
       style="fill:#ae3462;fill-opacity:1;stroke:none"
       d="m 335.48274,38.472104 c -0.58815,0.04173 -1.17388,0.06826 -1.75683,0.08004 -0.58291,0.01177 -1.16304,0.0087 -1.73998,-0.0088 -0.57693,-0.01749 -1.15069,-0.04956 -1.72087,-0.09573 -0.57018,-0.04622 -1.1368,-0.106502 -1.69945,-0.180639 -0.56265,-0.07418 -1.12136,-0.162111 -1.67574,-0.263565 -0.55437,-0.10146 -1.10442,-0.216402 -1.64974,-0.344497 -0.54531,-0.128106 -1.08593,-0.269369 -1.62143,-0.423454 -0.53551,-0.154085 -1.06591,-0.32099 -1.59086,-0.500396 -0.52493,-0.179407 -1.04437,-0.371294 -1.55795,-0.575364 -0.51361,-0.204065 -1.02131,-0.420295 -1.52281,-0.648338 l -12.95772,11.11241 3.47578,-17.527057 c -0.39532,-0.377457 -0.78173,-0.7644 -1.15885,-1.160546 -0.37708,-0.396122 -0.74488,-0.80145 -1.10299,-1.21561 -0.35811,-0.414153 -0.70655,-0.837171 -1.04491,-1.268693 -0.33835,-0.431525 -0.66666,-0.871567 -0.9845,-1.319795 -0.31784,-0.448222 -0.62524,-0.904632 -0.92182,-1.368901 -0.29655,-0.464248 -0.58229,-0.936362 -0.85681,-1.416006 -0.27452,-0.479633 -0.53784,-0.966789 -0.78955,-1.46114 -0.25171,-0.494337 -0.49183,-0.995877 -0.71997,-1.504276 -0.22813,-0.50839 -0.4443,-1.023646 -0.6481,-1.54542 -0.20379,-0.521783 -0.39522,-1.050076 -0.57393,-1.58458 -0.1787,-0.534496 -0.34467,-1.075195 -0.4975,-1.621754 -0.15287,-0.54655 -0.29255,-1.098974 -0.41873,-1.656923 -0.12613,-0.557961 -0.23891,-1.121433 -0.33772,-1.690123 -0.0988,-0.5686781 -0.1837,-1.1425715 -0.25438,-1.7213202 -0.0706,-0.5787583 -0.12705,-1.1623766 -0.16876,-1.7505293 -1.33517,-18.8210725 12.83994,-35.1609405 31.661,-36.4961155 18.82107,-1.335181 35.16095,12.839937 36.49612,31.661009 1.33518,18.821071 -12.83994,35.160941 -31.66102,36.496114 z"
       id="path3880"
       inkscape:connector-curvature="0"
       sodipodi:nodetypes="cssssssssscccssssssssssssssssssc" />
    <path
       style="fill:#a4b224;fill-opacity:1;stroke:none"
       d="m 242.14949,37.765993 c 0.58613,0.06416 1.17044,0.113054 1.7525,0.147147 0.58204,0.03408 1.16186,0.05313 1.73905,0.05761 0.57718,0.0044 1.15174,-0.0055 1.72326,-0.02995 0.57154,-0.02445 1.14004,-0.063 1.70511,-0.115575 0.56508,-0.05268 1.12675,-0.11915 1.6846,-0.199337 0.55784,-0.08021 1.11186,-0.17407 1.66169,-0.281222 0.54982,-0.107179 1.09544,-0.227683 1.63643,-0.361198 0.54101,-0.133509 1.07743,-0.280023 1.60882,-0.439245 0.5314,-0.159223 1.0578,-0.331126 1.57881,-0.51542 0.521,-0.184297 1.03661,-0.380974 1.54645,-0.589696 l 12.5237,11.599374 -2.8036,-17.647044 c 0.40943,-0.362118 0.81035,-0.734031 1.20233,-1.115426 0.39197,-0.381392 0.77498,-0.77241 1.14865,-1.172586 0.37367,-0.400189 0.73802,-0.809557 1.09262,-1.227854 0.35459,-0.418264 0.69945,-0.845444 1.0342,-1.281206 0.33482,-0.4357 0.65931,-0.880105 0.9734,-1.332695 0.31391,-0.452725 0.61766,-0.913451 0.91031,-1.382245 0.29262,-0.468806 0.57437,-0.945535 0.84488,-1.429837 0.27051,-0.484314 0.52947,-0.976388 0.77696,-1.475661 0.24721,-0.499387 0.48311,-1.00592 0.70665,-1.519531 0.22358,-0.513625 0.43507,-1.034253 0.63407,-1.561517 0.19904,-0.527253 0.38546,-1.061238 0.55908,-1.601549 0.17362,-0.540326 0.33439,-1.086964 0.48178,-1.6397 0.14738,-0.552719 0.28163,-1.111493 0.40201,-1.676004 0.12051,-0.564487 0.22728,-1.134712 0.31994,-1.7103523 0.0928,-0.5756212 0.17136,-1.1566769 0.23553,-1.7427985 C 281.88201,-11.233832 268.34154,-28.103353 249.58523,-30.156654 230.82889,-32.209952 213.9594,-18.66946 211.9061,0.08685526 209.85281,18.843162 223.39327,35.712691 242.14961,37.76598 z"
       id="path3857"
       inkscape:connector-curvature="0"
       sodipodi:nodetypes="cssssssssscccssssssssssssssssssc" />
    <path
       sodipodi:nodetypes="cssssssssscccssssssssssssssssssc"
       inkscape:connector-curvature="0"
       id="path3878"
       d="m 228.76503,60.822981 c 0.35293,0.47234 0.69179,0.950852 1.01672,1.434977 0.32492,0.484103 0.63582,0.973897 0.93283,1.468821 0.29705,0.494902 0.58012,0.994987 0.8494,1.499707 0.26921,0.50473 0.52469,1.014063 0.76635,1.527551 0.24168,0.513496 0.46957,1.031143 0.68378,1.552425 0.21419,0.521292 0.41477,1.046201 0.60163,1.57428 0.18697,0.528043 0.36018,1.059279 0.51988,1.593137 0.15978,0.533838 0.30592,1.070341 0.4386,1.608993 0.13266,0.538653 0.25198,1.079391 0.35777,1.621817 0.10583,0.542425 0.19826,1.086463 0.27737,1.631659 l 16.35237,4.897853 -16.62584,6.54681 c -0.10393,0.536599 -0.22073,1.070831 -0.35028,1.602197 -0.12953,0.531355 -0.27182,1.059867 -0.42678,1.584979 -0.15496,0.525135 -0.3226,1.046905 -0.50285,1.56481 -0.18024,0.517881 -0.37309,1.03191 -0.57849,1.541574 -0.20537,0.50964 -0.4233,1.014928 -0.65368,1.515341 -0.23036,0.500424 -0.47319,0.995973 -0.72844,1.486159 -0.25522,0.490161 -0.52283,0.974959 -0.80276,1.453895 -0.27993,0.478937 -0.57218,0.951998 -0.87667,1.418698 -0.30448,0.466666 -0.62122,0.927006 -0.95011,1.380446 -0.32892,0.45344 -0.66998,0.9 -1.02315,1.33921 -0.35316,0.43919 -0.71843,0.87102 -1.09572,1.29498 -0.37729,0.42396 -0.76662,0.84001 -1.1679,1.2477 -0.40131,0.40764 -0.81449,0.80704 -1.2396,1.19748 -0.42506,0.3905 -0.86211,0.772 -1.31088,1.1442 -0.4488,0.37219 -0.9094,0.73505 -1.38173,1.08798 -15.11486,11.2941 -36.52354,8.19676 -47.81762,-6.91808 -11.2941,-15.114861 -8.19676,-36.523544 6.91808,-47.817638 15.11486,-11.294097 36.52354,-8.19676 47.81764,6.918095 z"
       style="fill:#4d8bb0;fill-opacity:1;stroke:none" />
    <text
       xml:space="preserve"
       style="font-size:59.45824814px;font-style:italic;font-variant:normal;font-weight:normal;font-stretch:normal;text-align:center;line-height:125%;letter-spacing:0px;word-spacing:0px;text-anchor:middle;fill:#000000;fill-opacity:1;stroke:none;font-family:Amiri Quran;-inkscape-font-specification:Amiri Quran Italic"
       x="242.06186"
       y="23.434187"
       id="text2997"
       sodipodi:linespacing="125%"><tspan
         sodipodi:role="line"
         id="tspan2999"
         x="242.06186"
         y="23.434187"
         style="font-size:59.45824814px;font-style:italic;font-variant:normal;font-weight:normal;font-stretch:normal;text-align:center;text-anchor:middle;fill:#ffffff;stroke:none;font-family:Andale Mono;-inkscape-font-specification:Amiri Quran Italic">!</tspan></text>
    <text
       sodipodi:linespacing="125%"
       id="text3001"
       y="25.566504"
       x="331.72794"
       style="font-size:59.45824814px;font-style:italic;font-variant:normal;font-weight:normal;font-stretch:normal;text-align:center;line-height:125%;letter-spacing:0px;word-spacing:0px;text-anchor:middle;fill:#000000;fill-opacity:1;stroke:none;font-family:Amiri Quran;-inkscape-font-specification:Amiri Quran Italic"
       xml:space="preserve"><tspan
         style="font-size:59.45824814px;font-style:italic;font-variant:normal;font-weight:normal;font-stretch:normal;text-align:center;text-anchor:middle;fill:#ffffff;stroke:none;font-family:Andale Mono;-inkscape-font-specification:Amiri Quran Italic"
         y="25.566504"
         x="331.72794"
         id="tspan3003"
         sodipodi:role="line">&gt;</tspan></text>
    <text
       sodipodi:linespacing="125%"
       id="text3005"
       y="101.0542"
       x="199.80119"
       style="font-size:59.45824814px;font-style:italic;font-variant:normal;font-weight:normal;font-stretch:normal;text-align:center;line-height:125%;letter-spacing:0px;word-spacing:0px;text-anchor:middle;fill:#000000;fill-opacity:1;stroke:none;font-family:Amiri Quran;-inkscape-font-specification:Amiri Quran Italic"
       xml:space="preserve"><tspan
         style="font-size:59.45824814px;font-style:italic;font-variant:normal;font-weight:normal;font-stretch:normal;text-align:center;text-anchor:middle;fill:#ffffff;stroke:none;font-family:Andale Mono;-inkscape-font-specification:Amiri Quran Italic"
         y="101.0542"
         x="199.80119"
         id="tspan3007"
         sodipodi:role="line">?</tspan></text>
  </g>
</svg>
